<svg id="visual" viewBox="0 0 900 100" width="900" height="100" xmlns="http://www.w3.org/2000/svg" xmlns:xlink="http://www.w3.org/1999/xlink" version="1.1"><rect x="0" y="0" width="900" height="100" fill="#2B4364"></rect><path d="M0 37L10 38.7C20 40.3 40 43.7 60 44.2C80 44.7 100 42.3 120 41.7C140 41 160 42 180 42.2C200 42.3 220 41.7 240 44.5C260 47.3 280 53.7 300 53.7C320 53.7 340 47.3 360 44.8C380 42.3 400 43.7 420 44.2C440 44.7 460 44.3 480 44C500 43.7 520 43.3 540 44.5C560 45.7 580 48.3 600 50.2C620 52 640 53 660 50.3C680 47.7 700 41.3 720 40.7C740 40 760 45 780 45.8C800 46.7 820 43.3 840 40.7C860 38 880 36 890 35L900 34L900 101L890 101C880 101 860 101 840 101C820 101 800 101 780 101C760 101 740 101 720 101C700 101 680 101 660 101C640 101 620 101 600 101C580 101 560 101 540 101C520 101 500 101 480 101C460 101 440 101 420 101C400 101 380 101 360 101C340 101 320 101 300 101C280 101 260 101 240 101C220 101 200 101 180 101C160 101 140 101 120 101C100 101 80 101 60 101C40 101 20 101 10 101L0 101Z" fill="#2b4364"></path><path d="M0 56L10 55.8C20 55.7 40 55.3 60 55.5C80 55.7 100 56.3 120 56.3C140 56.3 160 55.7 180 57.8C200 60 220 65 240 65.5C260 66 280 62 300 60.2C320 58.3 340 58.7 360 60.2C380 61.7 400 64.3 420 64.2C440 64 460 61 480 59.5C500 58 520 58 540 56.8C560 55.7 580 53.3 600 52.2C620 51 640 51 660 50.8C680 50.7 700 50.3 720 51.3C740 52.3 760 54.7 780 54.8C800 55 820 53 840 53.3C860 53.7 880 56.3 890 57.7L900 59L900 101L890 101C880 101 860 101 840 101C820 101 800 101 780 101C760 101 740 101 720 101C700 101 680 101 660 101C640 101 620 101 600 101C580 101 560 101 540 101C520 101 500 101 480 101C460 101 440 101 420 101C400 101 380 101 360 101C340 101 320 101 300 101C280 101 260 101 240 101C220 101 200 101 180 101C160 101 140 101 120 101C100 101 80 101 60 101C40 101 20 101 10 101L0 101Z" fill="#707c95"></path><path d="M0 80L10 77.8C20 75.7 40 71.3 60 68.3C80 65.3 100 63.7 120 62.8C140 62 160 62 180 63.7C200 65.3 220 68.7 240 70.5C260 72.3 280 72.7 300 72.7C320 72.7 340 72.3 360 72.5C380 72.7 400 73.3 420 73.3C440 73.3 460 72.7 480 72.7C500 72.7 520 73.3 540 73.8C560 74.3 580 74.7 600 73.2C620 71.7 640 68.3 660 66.5C680 64.7 700 64.3 720 65.8C740 67.3 760 70.7 780 73.3C800 76 820 78 840 77.8C860 77.7 880 75.3 890 74.2L900 73L900 101L890 101C880 101 860 101 840 101C820 101 800 101 780 101C760 101 740 101 720 101C700 101 680 101 660 101C640 101 620 101 600 101C580 101 560 101 540 101C520 101 500 101 480 101C460 101 440 101 420 101C400 101 380 101 360 101C340 101 320 101 300 101C280 101 260 101 240 101C220 101 200 101 180 101C160 101 140 101 120 101C100 101 80 101 60 101C40 101 20 101 10 101L0 101Z" fill="#b5bbc9"></path><path d="M0 87L10 85.7C20 84.3 40 81.7 60 80.2C80 78.7 100 78.3 120 77.7C140 77 160 76 180 76.2C200 76.3 220 77.7 240 79.2C260 80.7 280 82.3 300 84.3C320 86.3 340 88.7 360 88.5C380 88.3 400 85.7 420 85.3C440 85 460 87 480 88C500 89 520 89 540 88.7C560 88.3 580 87.7 600 85.8C620 84 640 81 660 81.3C680 81.7 700 85.3 720 85.2C740 85 760 81 780 79.3C800 77.7 820 78.3 840 78.8C860 79.3 880 79.7 890 79.8L900 80L900 101L890 101C880 101 860 101 840 101C820 101 800 101 780 101C760 101 740 101 720 101C700 101 680 101 660 101C640 101 620 101 600 101C580 101 560 101 540 101C520 101 500 101 480 101C460 101 440 101 420 101C400 101 380 101 360 101C340 101 320 101 300 101C280 101 260 101 240 101C220 101 200 101 180 101C160 101 140 101 120 101C100 101 80 101 60 101C40 101 20 101 10 101L0 101Z" fill="#ffffff"></path></svg>